<?xml version="1.0" encoding="utf-8"?>
<svg version="1.1" id="Layer_1" xmlns="http://www.w3.org/2000/svg" x="0px" y="0px" width="529px" viewBox="0 0 529 535" enable-background="new 0 0 529 535" height="535px"><path fill="#1ABAE6" opacity="1.000000" stroke="none" d="M 348.935 215.237 C 352.098 218.348 355.262 221.459 358.76 225.104 C 360.167 227.19 366.392 233.895 367.348 235.831 C 357.475 249.172 340.928 254.573 323.583 257.008 C 320.778 257.337 318.391 257.668 315.537 257.997 C 310.051 257.993 305.033 257.992 299.795 257.81 C 299.048 257.434 298.52 257.238 297.845 256.728 C 296.064 253.48 291.238 250.545 289.76 247.329 C 295.151 241.335 302.985 235.475 308.483 229.719 C 308.913 229.042 313.204 213.698 313.587 212.862 C 314.56 212.042 315.308 208.548 315.427 207.662 C 316.392 200.479 321.249 204.194 325.463 206.866 C 327.5 208.158 329.459 208.696 333.47 209.586 C 331.78 206.269 329.575 203.326 329.108 201.409 C 328.806 200.169 329.69 199.23 330.305 197.999 C 336.254 203.526 343.265 209.875 348.935 215.237 Z"/><path fill="#96398D" opacity="1.000000" stroke="none" d="M 151.39 367.361 C 151.39 367.361 128.303 341.544 122.686 339.042 C 121.414 338.475 140.286 347.353 139.604 346.578 C 143.465 346.896 147.657 346.756 151.45 347.1 C 156.607 347.173 161.689 346.524 166.831 346.466 C 169.271 346.251 180.81 342.488 183.06 342.568 C 185.155 342.849 184.45 348.268 186.222 348.746 C 187.961 349.215 187.425 349.586 187.73 350.843 C 188.901 355.654 193.81 360.995 194.005 365.943 C 194.462 377.471 190.246 387.805 194.62 398.194 C 196.294 402.172 195.944 404.47 191.664 405.874 C 190.342 405.075 187.52 402.969 187.235 402.807 C 187.235 402.807 177.891 393.226 176.255 391.799 C 176.255 391.799 173.234 388.556 172.261 387.788 C 172.261 387.788 170.24 385.55 169.266 384.784 C 169.266 384.784 165.345 380.92 163.43 379.356 C 163.43 379.356 155.339 370.976 151.39 367.361 Z"/><path fill="#A3388C" opacity="1.000000" stroke="none" d="M 191.429 405.627 C 195.433 404.069 195.856 402.208 194.182 398.23 C 189.808 387.841 190.709 377.769 190.252 366.241 C 190.057 361.293 184.909 355.773 183.738 350.962 C 183.433 349.705 180.809 348.668 179.07 348.199 C 177.298 347.721 175.303 348.067 173.462 347.662 C 173.679 347.174 173.84 347.076 174.394 347.018 C 177.521 346.372 179.525 344.518 182.63 343.815 C 185.725 342.758 188.158 341.792 191.139 340.958 C 193.251 341.004 198.87 340.747 200.907 340.572 C 201.467 345.175 201.004 351.146 200.298 355.302 C 198.611 365.235 201.35 373.981 203.962 383.263 C 207.014 394.113 217.741 404.514 220.672 415.397 C 221.277 417.643 219.071 423.845 219.438 426.263 C 217.135 426.263 210.418 423.948 208.777 423.771 C 206.98 423.947 199.801 416.128 197.265 413.539 C 197.123 413.324 196.956 413.13 196.623 412.487 C 194.969 410.02 192.943 407.623 191.429 405.627 Z"/><path fill="#209ACA" opacity="1.000000" stroke="none" d="M 297.991 257.042 C 298.52 257.238 299.048 257.434 299.867 258.146 C 302.031 260.729 309.354 259.35 311.214 261.43 C 314.511 265.119 312.845 271.94 315.499 276.048 C 317.861 279.704 321.132 283.86 323.63 287.375 C 329.58 295.747 333.243 306.176 335.342 315.77 C 337.083 323.729 332.592 332.388 339.35 338.673 C 340.453 339.699 339.575 342.157 339.637 343.9 C 338.54 343.875 335.539 350.684 334.598 350.411 C 331.186 347.685 329.106 340.395 325.717 337.654 C 304.911 316.809 284.952 294.231 264.444 273.348 C 267.446 269.986 270.255 266.227 273.439 263.012 C 275.919 260.95 278.669 259.756 281.333 257.887 C 287.205 257.625 292.598 257.334 297.991 257.042 Z"/><path fill="#20B3DB" opacity="1.000000" stroke="none" d="M 362.196 230.679 C 363.626 229.524 364.939 228.751 366.768 228.106 C 368.929 230.81 371.442 233.2 372.045 236.001 C 373.515 242.828 374.022 249.856 375.078 256.779 C 375.501 259.551 376.348 262.258 376.976 265.357 C 375.574 269.222 374.622 275.729 375.006 279.414 C 375.884 282.977 377.028 286.084 377.584 289.293 C 378.81 296.377 387.171 303.761 390.334 310.101 C 394.32 318.091 390.703 326.314 384.197 335.048 C 381.951 338.063 383.319 342.584 383.668 346.51 C 381.243 347.127 377.643 347.989 375.512 348.04 C 373.288 344.99 370.546 344.262 368.546 341.435 C 365.641 337.329 358.895 330.761 358.215 326.229 C 356.924 317.621 362.23 308.943 361.91 300.156 C 361.768 296.239 361.076 292.224 359.891 288.489 C 357.441 280.768 357.236 280.833 363.989 276.094 C 362.932 275.21 362.112 274.068 361.026 273.689 C 354.45 271.395 347.589 269.778 341.261 266.953 C 335.23 264.262 323.079 259.634 317.348 256.271 C 334.274 253.834 352.323 244.02 362.196 230.679 Z"/><path fill="#45EBEA" opacity="1.000000" stroke="none" d="M 280.854 257.856 C 278.669 259.756 275.839 262.14 273.035 264.185 C 269.404 262.375 265.694 260.432 262.705 258.12 C 263.184 256.719 264.704 254.864 265.479 254.192 C 271.429 249.03 273.24 241.806 276.035 234.869 C 280.518 223.745 284.345 212.633 284.343 200.489 C 284.343 199.542 285.042 198.609 285.116 197.646 C 285.251 195.898 285.667 193.935 285.07 192.412 C 283.028 187.2 284.342 182.727 287.201 178.316 C 289.82 174.277 293.758 170.099 291.545 164.322 C 289.085 157.901 305.708 173.458 304.308 174.022 C 311.56 186.231 314.933 199.063 314.049 212.974 C 313.981 213.698 313.912 214.422 313.64 215.784 C 313.307 217.272 313.178 218.122 313.049 218.972 C 312.949 219.933 312.849 220.894 312.494 222.4 C 311.762 223.934 311.284 224.923 310.806 225.912 C 310.527 226.398 310.249 226.883 309.721 227.859 C 309.251 228.87 309.031 229.39 308.811 229.91 C 303.576 235.622 298.342 241.335 292.646 247.491 C 288.408 251.241 284.631 254.549 280.854 257.856 Z"/><path fill="#22A5D2" opacity="1.000000" stroke="none" d="M 339.244 344.554 C 338.816 342.802 339.728 339.78 338.625 338.754 C 331.867 332.469 331.931 323.729 330.19 315.77 C 328.091 306.176 326.734 296.544 320.784 288.172 C 318.286 284.657 315.705 280.902 313.343 277.246 C 310.689 273.138 309.073 268.554 305.776 264.865 C 303.916 262.785 299.813 259.398 297.868 256.995 C 302.815 256.661 310.051 256.514 315.613 256.852 C 322.027 261.927 327.328 269.282 333.919 272.584 C 341.398 276.33 344.628 281.573 344.952 289.251 C 345.427 300.535 346.063 311.843 346.728 323.113 C 347.233 331.673 348.568 339.613 358.116 343.09 C 359.497 343.593 361.22 346.578 361.718 348.323 C 357.58 347.943 352.626 347.593 348.671 347.133 C 348.247 347.024 339.244 344.554 339.244 344.554 Z"/><path fill="#21ACD7" opacity="1.000000" stroke="none" d="M 360.977 348.124 C 360.044 346.389 357.369 344.444 355.988 343.941 C 346.44 340.464 346.588 331.673 346.083 323.113 C 345.418 311.843 341.355 301.733 340.88 290.449 C 340.556 282.771 340.79 277.582 333.311 273.836 C 326.72 270.534 316.408 262.076 310.461 257.003 C 312.772 256.338 325.805 256.302 328.61 255.973 C 334.76 259.338 336.976 262.061 343.007 264.752 C 349.335 267.577 357.807 268.542 364.383 270.836 C 365.469 271.215 364.609 275.21 365.666 276.094 C 358.913 280.833 361.513 279.81 363.963 287.531 C 365.148 291.266 364.403 295.999 364.545 299.916 C 364.865 308.703 361.173 317.881 362.464 326.489 C 363.144 331.021 367.462 335.075 370.367 339.181 C 372.367 342.008 375.369 344.903 377.188 348.054 C 371.72 348.512 366.045 348.144 360.977 348.124 Z"/><path fill="#20B3DB" opacity="1.000000" stroke="none" d="M 314.011 213.215 C 314.58 199.416 308.698 182.796 301.465 170.588 C 303.134 171.208 307.852 175.38 309.179 176.664 C 316.535 183.776 323.762 191.022 331.2 198.522 C 331.031 200.218 330.18 201.739 330.482 202.979 C 330.949 204.896 332.204 206.622 333.894 209.939 C 329.883 209.049 327.157 209.008 325.039 207.854 C 320.948 205.625 318.298 206.048 316.604 210.605 C 316.293 211.443 314.984 212.395 314.011 213.215 Z"/><path fill="#20B3DB" opacity="1.000000" stroke="none" d="M 277.932 260.253 C 281.23 256.915 289.147 249.762 293.229 246.293 C 295.168 249.066 298.43 255.402 300.211 258.65 C 294.964 259.256 283.804 259.991 277.932 260.253 Z"/><path fill="#20B3DB" opacity="1.000000" stroke="none" d=" M311.151245,225.808533 C311.283936,224.923157 311.761810,223.933929 312.532318,222.760818 C312.382111,223.619522 311.939270,224.662094 311.151245,225.808533 z"/><path fill="#20B3DB" opacity="1.000000" stroke="none" d=" M309.074005,229.866760 C309.031036,229.389877 309.251160,228.870041 309.655701,228.135468 C309.672424,228.555084 309.504761,229.189438 309.074005,229.866760 z"/><path fill="#3A97C6" opacity="1.000000" stroke="none" d="M 140.37 347.217 C 139.632 346.921 123.123 339.499 122.706 338.788 C 121.448 336.905 136.842 342.327 135.432 341.389 C 130.423 338.057 125.674 333.787 125.512 327.868 C 125.27 319.091 123.876 309.977 123.045 301.25 C 122.398 294.465 128.191 287.16 117.318 284.912 C 116.744 284.794 117.515 282.42 117.083 281.614 C 117.308 279.619 113.646 278.86 113.77 277.246 C 114.239 271.127 117.079 263.112 117.917 256.913 C 120.724 256.222 124.599 256.656 127.406 256.013 C 129.523 255.645 132.628 253.784 134.574 253.764 C 134.644 259.846 132.721 267.172 133.19 272.889 C 133.416 275.642 134.991 278.84 136.985 280.777 C 141.201 284.875 144.415 289.287 144.873 295.225 C 145.396 301.994 145.622 308.786 146.003 315.566 C 146.62 326.546 146.461 337.97 151.922 348.203 C 148.533 347.96 144.231 347.535 140.37 347.217 Z"/><path fill="#459ECB" opacity="1.000000" stroke="none" d="M 151.049 348.049 C 145.184 337.715 144.184 326.952 143.567 315.972 C 143.186 309.192 140.929 302.806 140.406 296.037 C 139.948 290.099 139.286 287.428 135.07 283.33 C 133.076 281.393 131.792 277.266 131.566 274.513 C 131.097 268.796 126.037 262.961 126.236 256.668 C 130.828 253.428 142.455 249.151 146.561 245.903 C 152.104 241.519 157.222 235.271 162.708 230.599 C 163.556 231.31 165.091 233.251 165.635 234.194 C 164.651 236.45 163.475 238.943 162.029 240.313 C 153.318 248.565 148.348 258.376 147.446 270.491 C 147.157 274.384 147.634 277.002 151.103 278.705 C 156.343 281.278 158.219 285.996 158.861 291.265 C 159.336 295.16 159.233 299.133 159.276 303.073 C 159.377 312.447 159.738 321.785 159.707 331.159 C 159.685 337.72 157.699 345.158 166.843 348.101 C 162.09 348.13 156.206 348.122 151.049 348.049 Z"/><path fill="#4E9FCA" opacity="1.000000" stroke="none" d="M 166.466 348.108 C 156.933 345.194 159.43 337.756 159.452 331.195 C 159.483 321.821 158.971 312.853 158.87 303.479 C 158.827 299.539 155.275 296.378 154.8 292.483 C 154.158 287.214 154.313 284.933 149.073 282.36 C 145.604 280.657 144.721 274.79 145.01 270.897 C 145.912 258.782 149.257 246.941 157.968 238.689 C 159.414 237.319 164.089 236.29 165.384 234.145 C 168.851 237.125 172.461 240.842 175.556 244.459 C 172.416 252.15 168.797 259.319 165.618 266.596 C 163.622 271.167 165.822 275.596 168.236 280.358 C 169.548 283.772 169.332 286.739 169.746 289.905 C 171.395 302.513 172.854 315.106 172.483 327.826 C 172.301 334.109 170.225 341.037 176.117 346.54 C 175.956 346.638 173.679 347.174 173.264 347.396 C 170.958 347.706 168.906 347.893 166.466 348.108 Z"/><path fill="#5DAFD7" opacity="1.000000" stroke="none" d="M 191.904 341.848 C 189.18 342.887 186.455 343.926 183.353 344.566 C 182.912 340.414 182.858 336.66 182.783 332.907 C 182.524 319.937 182.259 306.968 181.997 293.54 C 180.919 287.366 179.798 281.658 178.796 275.929 C 178.58 274.695 178.488 273.287 178.864 272.128 C 180.841 266.024 182.986 259.975 185.315 254.041 C 186.038 254.449 186.519 254.722 187.174 255.275 C 189.562 257.706 194.128 255.523 196.508 257.938 C 197.57 259.348 215.362 277.02 215.982 278.362 C 213.308 282.284 190.491 273.006 192.571 278.673 C 194.33 283.465 194.625 288.906 194.927 294.097 C 195.522 304.344 198.075 314.618 198.46 324.878 C 198.623 329.236 198.616 332.342 203.394 333.932 C 199.896 336.477 195.171 339.583 191.904 341.848 Z"/><path fill="#AD398A" opacity="1.000000" stroke="none" d="M 190.227 342.601 C 193.237 340.13 199.276 336.588 203.034 333.946 C 206.333 331.144 207.865 328.717 211.024 326.259 C 212.923 325.746 219.589 324.291 222.458 323.397 C 222.067 326.573 221.511 331.288 221.091 333.672 C 219.202 344.405 215.449 355.06 215.72 365.731 C 216.09 380.38 214.955 394.514 217.378 409.064 C 218.432 415.396 220.682 421.523 222.274 427.772 C 222.642 429.218 222.536 430.784 222.681 432.738 C 219.832 432.064 217.786 431.58 215.74 431.096 C 213.239 428.622 210.738 426.148 208.103 423.373 C 209.36 423.072 210.752 423.072 213.055 423.072 C 212.688 420.654 212.554 418.281 211.949 416.035 C 209.018 405.152 205.992 394.295 202.94 383.445 C 200.328 374.163 197.896 364.997 199.583 355.064 C 200.289 350.908 198.727 346.367 198.167 341.764 C 196.13 341.939 192.34 342.646 190.227 342.601 Z"/><path fill="#52A9D3" opacity="1.000000" stroke="none" d="M 185.244 294.405 C 185.507 307.374 184.96 319.937 185.219 332.907 C 185.294 336.66 183.97 340.195 184.041 344.365 C 181.313 345.467 177.521 346.372 174.394 347.018 C 168.109 341.475 170.623 334.182 170.805 327.899 C 171.176 315.179 167.334 305.355 165.685 292.747 C 165.271 289.581 165.36 281.742 164.421 278.302 C 169.864 276.155 179.572 278.18 181.615 282.378 C 183.128 285.486 183.331 291.491 185.244 294.405 Z"/><path fill="#47D9EA" opacity="1.000000" stroke="none" d="M 503.549 171.218 C 509.215 177.16 516.228 182.172 517.983 191.041 C 516.2 193.095 514.796 194.71 513.327 196.269 C 511.482 198.227 509.94 200.783 507.635 201.942 C 502.562 204.494 497.16 206.51 491.761 208.405 C 487.319 209.964 485.943 213.023 485.186 217.139 C 484.196 222.525 482.587 227.821 481.004 233.09 C 480.042 236.292 477.994 239.3 477.601 242.524 C 477.247 245.438 477.802 248.916 479.345 251.347 C 479.964 252.321 484.302 251.227 486.934 250.954 C 489.616 250.677 491.847 251.206 494.52 250.846 C 490.083 255.062 486.081 258.323 481.034 262.789 C 479.911 263.651 479.399 264.262 478.887 264.874 C 477.968 265.74 477.049 266.606 475.571 267.712 C 474.674 268.392 474.335 268.831 473.997 269.27 C 473.997 269.27 473.733 269.052 473.512 269.219 C 472.456 270.341 471.62 271.297 470.785 272.252 C 470.785 272.252 469.694 272.854 469.446 273.096 C 465.48 276.946 462.7 280.807 459.602 283.807 C 457.999 284.884 456.902 283.535 455.552 283.877 C 455.086 282.886 454.671 282.252 454.691 281.629 C 455.128 267.742 455.603 253.856 456.095 239.97 C 456.252 235.535 456.478 231.103 456.755 226.295 C 458.486 221.764 460.358 217.672 461.73 213.433 C 463.758 207.163 465.431 200.787 467.624 194.386 C 470.05 192.664 472.129 191.036 474.161 189.355 C 475.683 188.096 476.934 186.067 478.668 185.6 C 484.955 183.907 491.36 182.546 497.789 181.419 C 501.913 180.697 503.835 179.337 502.174 175.053 C 501.793 174.07 503.047 172.512 503.549 171.218 Z" style=""/><path fill="#28BCDF" opacity="1.000000" stroke="none" d="M 375.006 279.004 C 374.622 275.729 373.06 268.631 374.828 264.738 C 376.289 263.673 377.941 263.236 378.33 262.284 C 380.247 257.588 383.006 252.714 384.247 247.791 C 384.844 245.425 384.972 242.662 389.383 241.963 C 391.85 241.623 393.924 241.31 396.001 241.396 C 396.482 243.501 403.354 240.821 404.32 242.182 C 408.677 248.324 409.777 257.319 414.21 263.703 C 411.034 269.701 412.963 274.939 415.85 280.009 C 415.347 282.327 411.553 285.693 411.789 287.639 C 412.122 290.389 413.802 293.04 413.841 295.749 C 414.027 308.411 415.673 321.351 408.346 332.933 C 408.022 333.446 408.109 334.219 408.004 334.871 C 405.015 337.48 402.027 340.09 398.357 342.872 C 395.442 343.681 392.254 345.184 390.027 345.379 C 390.485 341.695 391.447 337.442 392.432 334.37 C 394.548 327.766 397.986 321.494 399.381 314.774 C 401.277 305.642 401.794 296.678 394.63 288.396 C 389.1 282.003 383.195 278.713 375.006 279.004 Z"/><path fill="#2CD9ED" opacity="1.000000" stroke="none" d="M 420.403 175.766 C 434.276 158.622 460.329 151.156 480.907 157.727 C 479.411 159.434 476.373 160.126 474.623 161.267 C 471.509 163.299 467.659 164.692 465.388 167.413 C 462.014 171.457 459.745 176.425 456.721 181.176 C 452.291 186.902 448.145 192.451 443.613 197.971 C 439.558 196.798 436.338 196.633 435.194 201.413 C 435.051 202.009 434.577 202.613 434.097 203.03 C 426.421 209.693 418.719 216.327 411.047 222.601 C 412.778 219.266 414.407 216.249 416.212 213.341 C 418.61 209.479 417.226 204.17 419.272 200.138 C 421.391 195.963 426.298 192.596 428.951 188.89 C 431.079 185.918 431.457 183.667 429.215 181.593 C 426.663 179.234 423.373 177.674 420.403 175.766 Z"/><path fill="#4DDEEC" opacity="1.000000" stroke="none" d="M 494.28 251.218 C 491.198 251.766 488.444 252.205 485.672 252.492 C 482.953 252.773 478.47 253.905 477.831 252.898 C 476.237 250.385 475.663 246.789 476.029 243.778 C 476.434 240.446 478.551 237.336 479.545 234.027 C 481.181 228.581 482.843 223.106 483.867 217.539 C 484.649 213.285 486.07 210.123 490.661 208.511 C 496.24 206.553 501.821 204.469 507.063 201.831 C 509.446 200.633 511.038 197.992 512.945 195.966 C 514.462 194.356 515.913 192.686 517.789 190.953 C 520.412 197.877 521.483 204.855 519.181 212.155 C 518.164 215.379 518.369 218.953 517.499 222.892 C 515.578 226.344 514.176 229.271 512.774 232.198 C 507.571 237.425 502.351 242.638 497.177 247.891 C 496.225 248.857 495.454 249.987 494.28 251.218 Z" style=""/><path fill="#21BADE" opacity="1.000000" stroke="none" d="M 391.415 344.859 C 389.344 345.762 380.367 347.975 377.896 348.428 C 376.841 344.683 383.068 338.722 381.943 335.135 C 379.397 327.015 380.327 318.896 380.536 310.621 C 380.715 303.538 376.46 296.209 375.234 289.125 C 374.678 285.916 374.15 280.289 373.272 276.726 C 381.461 276.025 391.246 283.268 399.312 285.795 C 421.949 292.887 402.404 307.203 400.508 316.335 C 399.113 323.055 395.242 328.286 393.126 334.89 C 392.141 337.962 391.873 341.175 391.415 344.859 Z"/><path fill="#575FBB" opacity="1.000000" stroke="none" d="M 367.124 345.843 C 372.628 345.854 397.771 342.041 400.413 341.386 C 399.197 343.988 395.62 348.603 393.551 350.806 C 386.965 357.816 380.074 364.538 373.107 371.64 C 365.819 378.262 355.611 387.49 348.201 393.67 C 344.222 388.628 344.789 380.223 345.021 374.3 C 345.26 368.204 343.797 365.436 347.09 355.966 C 347.792 353.946 343.982 349.971 348.615 346.976 C 352.317 347.365 362.987 345.464 367.124 345.843 Z"/><path fill="#2DC6E6" opacity="1.000000" stroke="none" d="M 407.147 335.544 C 406.918 334.944 407.459 333.387 407.783 332.874 C 415.11 321.292 413.593 308.411 413.407 295.749 C 413.368 293.04 411.255 290.389 410.922 287.639 C 410.686 285.693 412.312 283.627 413.24 281.317 C 417.445 281.353 422.387 277.875 425.912 278.555 C 428.22 279 429.171 283.673 431.244 284.85 C 433.79 286.296 435.962 288.462 438.589 289.694 C 442.342 291.453 444.222 294.053 444.054 298.526 C 444.042 299.619 444.034 300.349 444.027 301.078 C 437.114 307.945 430.201 314.812 422.85 321.929 C 422.22 322.306 422.108 322.484 422.074 322.712 C 420.791 324.042 419.509 325.371 417.803 326.932 C 417.207 327.271 417.112 327.426 417.095 327.629 C 417.095 327.629 416.904 327.902 416.641 328.021 C 416.214 328.233 416.123 328.373 416.108 328.561 C 413.629 330.63 409.959 333.424 407.147 335.544 Z"/><path fill="#39DDEE" opacity="1.000000" stroke="none" d="M 457.006 180.999 C 459.745 176.425 458.188 170.936 461.563 166.891 C 463.834 164.17 470.062 165.021 469.059 161.441 C 466.75 153.198 478.064 158.895 479.906 157.389 C 488.799 160.544 497.85 163.531 504.237 171.56 C 503.855 173.188 502.668 174.737 503.029 175.715 C 504.6 179.973 502.782 181.324 498.881 182.042 C 492.799 183.161 486.741 184.514 480.794 186.197 C 479.154 186.662 477.97 188.678 476.531 189.93 C 474.609 191.6 472.642 193.218 470.058 194.745 C 468.163 192.591 466.772 190.619 465.675 188.495 C 463.769 184.804 461.91 181.175 457.006 180.999 Z"/><path fill="#22CBEE" opacity="1.000000" stroke="none" d="M 421.693 174.529 C 424.937 176.283 432.37 178.898 434.922 181.257 C 437.164 183.331 441.149 186.925 439.021 189.897 C 436.368 193.603 425.646 197.665 423.527 201.84 C 421.481 205.872 419.617 210.654 417.219 214.516 C 415.414 217.424 412.778 219.266 411.04 222.98 C 411.008 224.484 411.006 225.241 410.623 226.025 C 408.495 226.364 406.747 226.678 405 226.557 C 404.976 222.722 406.046 218.784 404.696 216.035 C 402.035 210.619 401.34 203.918 394.691 201.009 C 397.678 198.015 400.8 194.685 403.943 191.398 C 409.35 186.095 416.166 179.694 421.693 174.529 Z"/><path fill="#15AAB2" opacity="1.000000" stroke="none" d="M 63.513 155.073 C 69.025 156.056 74.999 157.069 80.844 158.658 C 82.425 160.722 95.278 164.093 91.614 167.93 C 88.781 170.897 93.301 168.965 92.457 173.425 C 89.973 186.55 92.406 199.473 94.872 212.072 C 96.929 222.585 100.828 233.886 97.811 244.225 C 96.355 249.214 91.441 253.652 88.866 258.482 C 82.045 258.487 72.24 261.833 65.856 261.44 C 64.727 257.783 66.637 251.218 68.858 248.428 C 70.742 246.06 70.326 240.906 68.082 238.807 C 47.704 219.748 70.646 228.687 71.775 223.21 C 72.071 221.773 67.468 220.706 67.405 219.229 C 67.032 210.435 70.858 202.336 70.906 193.33 C 70.928 189.058 68.909 184.865 67.997 180.472 C 66.255 172.078 64.924 163.536 63.513 155.073 Z"/><path fill="#0DA5AC" opacity="1.000000" stroke="none" d="M 63.559 155.039 C 65.387 163.567 66.563 172.078 68.305 180.472 C 69.217 184.865 72.347 189.058 72.325 193.33 C 72.277 202.336 76.38 210.435 76.753 219.229 C 76.816 220.706 76.821 222.233 76.525 223.67 C 75.396 229.147 74.349 234.658 72.832 240.033 C 71.998 242.99 72.9 247.63 71.016 249.998 C 68.795 252.788 67.859 255.776 68.522 259.462 C 63.743 259.817 56.829 259.613 52.385 259.208 C 51.668 254.488 51.613 248.364 51.144 243.661 C 53.152 238.387 49.994 232.444 52.34 227.476 C 54.607 222.675 58.938 217.848 58.968 212.047 C 58.99 207.747 59.166 205.221 54.244 204.178 C 59.082 197.721 54.696 191.864 53.824 185.934 C 53.183 181.577 51.923 177.022 47.315 174.728 C 43.569 172.863 43.697 170.625 46.898 168.475 C 51.273 165.536 52.886 161.61 51.869 156.51 C 55.626 155.998 59.384 155.486 63.559 155.039 Z"/><path fill="#08A0A7" opacity="1.000000" stroke="none" d="M 52.061 156.55 C 53.472 161.702 53.265 166.302 48.89 169.241 C 45.689 171.391 47.094 171.79 50.84 173.655 C 55.448 175.949 54.157 183.105 57.655 185.781 C 63.598 190.328 69.005 207.147 65.098 212.507 C 61.681 217.195 57.969 223.323 55.702 228.124 C 53.356 233.092 53.399 244.217 50.998 249.499 C 46.958 250.522 41.32 247.215 40.536 241.979 C 40.453 241.424 41.491 239.491 40.983 239.088 C 34.987 234.331 33.592 227.775 34.488 220.499 C 34.632 219.327 34.09 217.921 33.484 216.836 C 31.908 214.017 30.167 211.432 33.319 208.401 C 33.93 207.814 33.836 205.428 33.171 204.745 C 27.574 198.994 31.281 191.82 30.623 185.511 C 29.912 178.704 33.679 164.893 31.885 164.833 C 36.017 162.619 40.149 160.405 44.601 158.035 C 46.974 157.388 49.614 156.989 52.061 156.55 Z"/><path fill="#1AB1BA" opacity="1.000000" stroke="none" d="M 87.006 257.89 C 89.113 253.09 91.758 248.448 93.214 243.459 C 96.231 233.12 95.703 222.585 93.646 212.072 C 91.18 199.473 87.368 187.01 89.852 173.885 C 90.696 169.425 87.919 166.436 84.943 163.613 C 83.559 162.3 82.024 160.475 80.734 158.637 C 84.563 160.209 88.835 162.409 92.75 164.858 C 93.135 166.67 95.081 168.068 95.848 169.052 C 98.194 172.066 101.664 174.662 104.329 177.402 C 106.944 180.091 106.604 185.73 106.413 189.64 C 106.077 196.525 104.788 201.154 105.57 208.022 C 107.352 223.661 117.274 239.949 108.709 254.37 C 107.976 255.603 100.541 257.458 99.675 258.926 C 95.519 258.956 90.701 257.901 87.006 257.89 Z"/><path fill="#1CB6BF" opacity="1.000000" stroke="none" d="M 99.011 257.842 C 99.417 256.414 99.721 254.91 100.272 253.585 C 106.197 239.329 107.375 223.133 102.76 208.102 C 100.678 201.322 104.073 194.489 104.647 187.285 C 104.933 183.69 104.656 177.206 101.439 177.884 C 86.813 180.966 96.232 172.262 93.886 169.248 C 93.12 168.263 92.672 166.392 92.546 164.816 C 96.938 168.349 101.577 172.422 105.918 176.886 C 107.099 179.583 107.788 181.877 109.189 183.588 C 113.801 189.223 118.806 194.54 123.353 200.225 C 124.569 201.745 129.699 208.075 129.293 209.831 C 126.575 221.572 121.096 230.177 117.532 241.678 C 115.713 247.548 111.874 260.815 107.735 258.953 C 105.589 259.002 103.711 257.984 101.62 257.996 C 100.502 257.934 99.756 257.888 99.011 257.842 Z"/><path fill="#1FBAC4" opacity="1.000000" stroke="none" d="M 102.509 269.268 C 105.286 263.695 114.348 246.986 116.167 241.116 C 119.731 229.615 122.466 217.847 125.172 206.103 C 125.577 204.348 118.042 204.848 118.536 202.473 C 120.018 195.346 113.159 189.303 108.547 183.668 C 107.146 181.957 106.451 178.997 105.431 176.585 C 115.984 186.364 127.19 197.112 137.899 207.961 C 138.133 209.468 137.9 210.582 138.348 211.067 C 145.036 218.302 143.737 224.449 140.298 231.707 C 137.807 236.965 131.587 241.446 128.356 247.245 C 125.629 252.139 130.384 253.007 131.765 256.206 C 129.336 256.816 122.169 257.266 118.906 257.943 C 114.716 257.969 105.866 269.309 102.509 269.268 Z"/><path fill="#5383C1" opacity="1.000000" stroke="none" d="M 187.955 255.655 C 187.474 255.383 186.038 254.449 185.22 253.72 C 181.598 250.148 157.826 228.511 154.54 225.395 C 151.413 222.16 155.301 228.185 151.862 224.838 C 150.979 224.15 163.877 232.835 163.045 231.877 C 162.764 231.164 162.744 230.834 162.724 230.505 C 164.116 229.294 165.509 228.084 167.12 226.613 C 168.039 225.65 168.74 224.949 169.637 224.026 C 175.651 218.268 181.469 212.733 187.502 206.948 C 188.597 205.864 189.476 205.03 190.554 203.966 C 193.621 201.217 197.157 198.208 200.321 195.945 C 198.44 205.044 196.232 214.471 194.366 223.378 C 192.151 233.953 185.85 244.205 187.955 255.655 Z"/><path fill="#26BFCA" opacity="1.000000" stroke="none" d="M 162.457 230.295 C 162.744 230.834 162.764 231.164 162.768 231.742 C 157.543 236.796 152.586 241.92 147.043 246.304 C 142.937 249.552 137.644 253.327 132.846 256.252 C 130.837 256.798 129.523 255.645 127.406 256.013 C 125.65 252.829 124.907 250.18 126.654 247.245 C 129.774 242.004 133.504 236.069 136.926 231.065 C 141.46 224.435 142.485 219.479 135.797 212.244 C 135.349 211.759 137.673 209.162 137.598 207.943 C 145.648 214.956 154.149 222.674 162.457 230.295 Z"/><path fill="#109CA4" opacity="1.000000" stroke="none" d="M 32.316 164.583 C 34.296 164.585 35.473 164.953 37.634 165.007 C 38 165 37.999 164.999 37.999 164.999 C 37.907 165.318 37.908 165.809 37.71 165.93 C 30.267 170.464 30.925 179.903 34.232 185.881 C 37.76 192.26 31.114 197.3 33.541 204.714 C 33.761 205.386 34.761 207.732 34.861 208.37 C 35.536 212.69 34.674 210.613 36.25 213.432 C 36.856 214.517 35.25 219.392 35.66 220.499 C 38.492 228.148 35.11 234.084 41.106 238.841 C 41.614 239.244 42.273 239.789 42.356 240.344 C 43.14 245.58 46.711 244.692 50.602 244.013 C 51.613 248.364 53.113 254.167 53.421 258.904 C 48.034 258.371 42.074 256.013 36.997 255.101 C 35.683 254.316 34.369 253.53 32.793 252.55 C 32.317 252.171 32.11 251.981 31.765 251.629 C 24.495 244.061 16.905 237.021 13.062 227.084 C 7.148 211.789 7.869 195.251 16.73 180.663 C 21.716 176.098 25.139 173.093 29.497 168.472 C 30.211 167.714 29.489 167.007 29.862 165.927 C 30.016 165.7 31.862 164.696 32.316 164.583 Z"/><path fill="#08A0A7" opacity="1.000000" stroke="none" d=" M30.533022,165.490509 C30.507236,166.451706 30.427290,167.807480 29.712927,168.564941 C25.354618,173.186172 20.852188,177.671478 16.163671,182.051208 C18.760897,174.789017 24.044146,169.823273 30.533022,165.490509 z"/><path fill="#5851A7" opacity="1.000000" stroke="none" d="M 326.514 335.388 C 329.718 337.858 333.455 340.861 336.787 343.968 C 336.704 351.379 337.014 358.215 336.174 364.908 C 334.489 378.332 330.876 391.671 336.069 405.088 C 336.069 405.088 336.02 405.044 335.848 405.182 C 335.454 405.571 335.232 405.823 335.01 406.075 C 335.01 406.075 335.006 406.007 334.841 406.162 C 334.454 406.57 334.233 406.822 334.011 407.074 C 334.011 407.074 334.004 407.007 333.84 407.162 C 333.454 407.568 333.233 407.818 333.011 408.068 C 333.011 408.068 333.003 408.004 332.837 408.16 C 332.452 408.567 332.231 408.817 332.011 409.067 C 332.011 409.067 332.002 409.003 331.836 409.165 C 331.456 409.587 331.241 409.847 331.026 410.108 C 325.352 415.768 319.677 421.429 313.819 427.363 C 311.481 429.262 306.22 434.471 303.811 435.741 C 311.989 422.28 315.273 404.322 311.637 390.04 C 309.994 383.588 305.365 377.897 302.03 371.559 C 301.864 370.86 301.759 370.463 302.061 370.041 C 303.625 369.298 288.115 333.575 288.917 332.572 C 290.736 330.298 309.77 357.415 309.699 354.503 C 309.507 346.619 314.842 353.468 316.215 349.681 C 318.342 343.815 320.225 337.876 326.514 335.388 Z"/><path fill="#5858B2" opacity="1.000000" stroke="none" d="M 334.202 407.079 C 328.72 393.827 330.656 378.572 332.341 365.148 C 333.181 358.455 336.022 351.26 336.314 344.107 C 337.127 343.741 338.54 343.875 339.637 343.9 C 340.003 343.909 340.009 343.976 340.228 344.24 C 341.619 344.888 342.79 345.272 343.961 345.657 C 344.436 345.705 344.911 345.753 345.896 346.076 C 346.931 346.475 347.456 346.597 347.981 346.72 C 348.152 346.758 348.323 346.796 348.747 346.905 C 348.333 349.971 355.111 355.711 354.962 358.732 C 354.66 364.831 347.224 368.2 346.936 374.3 C 346.657 380.221 347.336 385.753 351.051 391.019 C 346.284 395.864 339.31 402.467 334.202 407.079 Z"/><path fill="#5858B2" opacity="1.000000" stroke="none" d=" M332.236877,408.945282 C332.231384,408.816864 332.451599,408.566864 332.869629,408.163025 C332.865845,408.280670 332.664215,408.552216 332.236877,408.945282 z"/><path fill="#5858B2" opacity="1.000000" stroke="none" d=" M331.245178,409.971069 C331.241150,409.847443 331.455872,409.587372 331.868286,409.167725 C331.865295,409.283630 331.664612,409.559113 331.245178,409.971069 z"/><path fill="#5858B2" opacity="1.000000" stroke="none" d=" M333.238831,407.947662 C333.232513,407.817871 333.454041,407.567657 333.873596,407.162781 C333.869965,407.281158 333.668304,407.554199 333.238831,407.947662 z"/><path fill="#5858B2" opacity="1.000000" stroke="none" d=" M334.245056,406.959564 C334.232758,406.821960 334.454468,406.570038 334.875305,406.163055 C334.875977,406.287048 334.677490,406.566132 334.245056,406.959564 z"/><path fill="#5858B2" opacity="1.000000" stroke="none" d=" M335.244751,405.961426 C335.231995,405.823059 335.454315,405.571075 335.875732,405.163422 C335.876526,405.287781 335.678192,405.567749 335.244751,405.961426 z"/><path fill="#3BE2E3" opacity="1.000000" stroke="none" d="M 293.175 163.648 C 293 164.282 292.387 164.793 292.479 165.078 C 294.378 170.966 290.115 174.277 287.496 178.316 C 284.637 182.727 283.323 187.2 285.365 192.412 C 285.962 193.935 288.868 197.387 288.733 199.135 C 288.659 200.098 287.312 202.696 287.482 203.628 C 290.08 217.849 282.087 223.976 277.068 234.869 C 273.752 242.066 272.949 249.742 267.245 254.781 C 266.476 255.46 264.606 257.031 263.688 258.435 C 261.184 258.787 258.015 258.938 255.97 258.507 C 256.503 255.335 256.074 250.843 257.131 248.308 C 261.154 238.654 264.867 229.252 265.005 218.815 C 265.04 216.205 265.005 213.594 264.992 210.984 C 264.974 207.571 264.781 204.149 264.96 200.747 C 265.273 194.819 261.562 187.73 261.927 181.804 C 262.529 172.02 261.041 164.019 256.691 155.604 C 258.794 155.279 263.224 155.357 264.942 155.079 C 266.04 155.093 267.138 155.107 268.644 155.048 C 271.811 155.614 274.57 156.252 277.736 156.827 C 282.663 158.661 287.184 160.56 292.057 162.557 C 292.628 162.911 292.847 163.166 293.175 163.648 Z"/><path fill="#3390C0" opacity="1.000000" stroke="none" d="M 117.005 281.998 C 117.515 282.42 117.97 283.108 118.544 283.226 C 129.417 285.474 126.229 294.465 126.876 301.25 C 127.707 309.977 127.722 318.785 127.964 327.562 C 128.126 333.481 134.071 335.531 139.08 338.863 C 140.49 339.801 137.691 344.107 138.832 345.856 C 133.504 343.802 128.141 341.394 122.466 338.898 C 118.02 334.765 113.886 330.719 109.962 326.385 C 114.593 326.409 115.677 323.939 113.817 320.634 C 109.881 313.637 109.263 306.085 108.419 298.34 C 107.352 288.55 107.914 286.562 117.005 281.998 Z"/><path fill="#37D2D7" opacity="1.000000" stroke="none" d="M 224.049 171.781 C 224.161 171.56 224.314 171.371 224.929 171.011 C 225.579 170.508 225.807 170.21 226.035 169.912 C 229.467 167.33 232.9 164.748 236.836 162.46 C 239.38 163.935 253.593 165.375 255.355 165.967 C 263.297 168.636 250.577 175.506 250.567 179.225 C 250.542 188.671 248.928 195.713 249.005 205.155 C 249.077 214.056 246.763 223.811 247.414 232.696 C 247.991 240.576 247.206 248.217 247.603 256.05 C 243.819 254.347 240.033 254.128 236.368 252.243 C 232.656 249.14 229.564 244.802 225.936 241.618 C 225.318 240.625 224.901 239.902 224.408 239.236 C 211.131 221.307 209.771 202.41 219.72 182.55 C 221.275 179.446 221.219 176.804 222.685 173.318 C 222.704 172.786 224.065 171.995 224.049 171.781 Z"/><path fill="#37DDDD" opacity="1.000000" stroke="none" d="M 245.717 257.064 C 244.95 249.198 246.289 240.363 245.712 232.483 C 245.061 223.598 244.396 214.694 244.324 205.793 C 244.247 196.351 245.048 186.905 245.073 177.459 C 245.083 173.74 244.595 169.792 243.227 166.393 C 242.533 164.669 238.669 164.335 236.467 162.842 C 238.07 161.502 240.544 160.074 243.024 158.986 C 246.472 157.962 249.204 156.999 251.936 156.035 C 253.57 155.775 255.205 155.515 257.579 155.469 C 258.552 155.791 258.785 155.899 259.017 156.007 C 263.753 164.375 266.846 173.197 266.244 182.981 C 265.879 188.907 267.339 194.671 267.026 200.599 C 266.847 204.001 265.335 217.533 265.3 220.143 C 265.162 230.58 262.724 239.243 258.701 248.897 C 257.644 251.432 257.631 254.932 256.71 258.119 C 255.549 258.584 254.692 258.05 253.555 258.072 C 251.783 257.761 250.372 257.458 248.818 256.957 C 248.464 256.509 245.974 257.265 245.717 257.064 Z"/><path fill="#6091CE" opacity="1.000000" stroke="none" d="M 222.796 173.085 C 223.602 172.994 223.237 179.446 221.682 182.55 C 211.733 202.41 213.294 219.892 224.408 239.236 C 224.901 240.094 226.006 239.745 226.419 240.858 C 222.734 245.311 220.596 251.017 220.817 256.972 C 220.944 260.409 218.562 263.12 217.901 266.502 C 216.999 271.114 218.212 276.882 211.701 278.84 C 206.62 274.43 201.818 270.201 197.015 265.972 C 196.117 264.827 194.926 263.168 194.2 261.591 C 195.427 257.075 196.423 253.125 197.366 249.014 C 199.162 241.185 201.44 233.691 202.811 225.784 C 204.783 214.42 205.645 202.922 207.249 191.497 C 207.364 190.676 207.327 189.868 206.928 188.975 C 212.02 183.719 217.112 178.464 222.796 173.085 Z"/><path fill="#5C8BC9" opacity="1.000000" stroke="none" d="M 207.355 188.504 C 208.062 189.28 208.172 190.823 208.057 191.644 C 206.453 203.069 204.916 214.509 202.944 225.873 C 201.573 233.78 199.607 241.585 197.811 249.414 C 196.868 253.525 195.721 257.589 194.329 261.84 C 191.777 259.856 189.562 257.706 187.174 255.275 C 184.895 243.544 191.27 233.806 193.485 223.231 C 195.351 214.324 197.773 205.533 199.944 196.261 C 200.954 194.657 201.969 193.483 203.097 192.057 C 204.244 190.94 206.013 189.487 207.355 188.504 Z"/><path fill="#20C4E8" opacity="1.000000" stroke="none" d="M 395.31 200.493 C 402.081 202.539 401.957 207.445 405.303 215.601 C 406.465 218.434 405.93 222.722 405.928 226.921 C 405.128 229.341 404.279 231.982 403.256 233.425 C 401.192 236.334 398.728 238.972 396.519 241.778 C 394.444 242.09 390.116 242.317 387.626 242.29 C 383.803 236.329 382.259 229.928 378.591 224.484 C 378.002 223.608 375.659 223.639 374.157 223.733 C 372.732 223.822 370.606 225.285 369.203 225.729 C 372.487 222.302 376.512 218.135 379.959 214.418 C 380.888 213.463 381.654 212.799 382.59 211.878 C 383.035 211.514 383.264 211.344 383.553 210.924 C 387.185 207.494 391.489 203.904 395.31 200.493 Z"/><path fill="#1ABAE6" opacity="1.000000" stroke="none" d="M 369.663 225.099 C 371.346 224.545 374.449 221.532 375.874 221.443 C 377.376 221.349 378.888 223.165 379.477 224.041 C 383.145 229.485 385.537 235.635 388.968 241.623 C 388.009 244.181 386.908 246.327 386.068 248.571 C 384.288 253.325 382.761 258.179 380.844 262.875 C 380.455 263.827 376.585 264.707 375.15 265.41 C 374.13 262.701 372.48 260.222 372.057 257.45 C 371.001 250.527 372.036 243.863 370.566 237.036 C 369.963 234.235 367.894 232.584 366.009 229.733 C 366.629 228.634 368.524 226.035 369.663 225.099 Z"/><path fill="#2F8BBA" opacity="1.000000" stroke="none" d="M 117.389 283.3 C 108.22 288.248 109.957 292.075 111.024 301.865 C 111.868 309.61 114.562 313.637 118.498 320.634 C 120.358 323.939 117.045 328.248 112.165 327.964 C 110.014 326.503 105.871 323.176 103.935 321.482 C 99.847 317.437 96.004 313.597 91.917 309.536 C 88.145 305.786 84.618 302.256 80.836 298.506 C 80.377 298.103 80.179 297.912 79.85 297.559 C 78.85 296.515 77.989 295.625 76.9 294.526 C 73.828 291.471 70.984 288.625 67.893 285.561 C 64.867 282.428 62.088 279.513 59.403 276.145 C 61.896 277.524 64.192 279.514 66.723 281.135 C 68.567 282.315 71.354 280.542 73.286 280.389 C 80.228 279.841 86.539 281.841 93.472 281.104 C 96.86 280.744 96.679 279.379 96.494 276.186 C 96.126 269.817 91.551 263.435 95.41 258.011 C 97.127 257.984 105.428 257.958 107.574 257.909 C 111.36 257.928 116.322 257.889 120.134 257.943 C 120.13 264.076 118.07 270.276 117.6 276.395 C 117.476 278.009 117.614 294.824 117.389 283.3 Z"/><path fill="#2E82AE" opacity="1.000000" stroke="none" d="M 101.62 257.996 C 98.135 263.435 97.615 269.604 97.983 275.973 C 98.168 279.166 97.32 281.663 93.932 282.023 C 86.999 282.76 79.667 283.209 72.725 283.757 C 70.793 283.91 68.925 282.801 69.787 284.813 C 71.847 289.619 61.896 277.524 59.257 275.847 C 53.08 270.552 47.145 265.102 40.927 259.484 C 39.547 258.079 38.529 256.682 37.255 255.193 C 42.154 255.853 47.151 256.926 52.637 257.821 C 57.391 257.847 61.736 257.89 66.546 257.903 C 73.364 257.899 79.717 257.925 86.538 257.92 C 90.701 257.901 94.395 257.912 98.55 257.882 C 99.756 257.888 100.502 257.934 101.62 257.996 Z"/><path fill="#B5398A" opacity="1.000000" stroke="none" d="M 215.593 430.874 C 217.458 431.069 219.394 431.517 222.243 432.191 C 220.282 426.865 222.022 429.473 221.654 428.027 C 220.064 421.778 217.885 415.542 216.831 409.21 C 214.408 394.66 211.801 379.903 211.431 365.254 C 211.16 354.583 214.885 343.816 216.774 333.083 C 217.194 330.699 217.386 328.275 217.777 325.099 C 214.908 325.993 211.974 326.658 210.23 326.885 C 211.348 324.889 214.049 322.966 215.678 321.22 C 217.188 320.412 217.982 318.587 219.54 317.761 C 223.04 315.087 226.862 311.547 230.159 309.112 C 231.612 308.039 234.303 307.481 234.958 308.056 C 239.013 311.619 243.019 316.353 246.424 320.544 C 247.115 321.395 246.935 325.341 245.961 326.64 C 243.134 330.412 242.724 335.72 240.386 339.734 C 237.244 345.128 243.435 353.412 241.123 359.245 C 239.738 362.74 228.226 361.852 227.958 365.54 C 227.481 372.124 229.06 377.856 229.63 384.427 C 230.693 396.667 228.853 408.888 230.592 421.05 C 231.359 426.416 232.89 431.301 234.711 436.424 C 236.457 441.334 235.894 443.005 230.461 443.515 C 229.571 443.101 227.951 442.103 226.795 441.564 C 223.053 438.184 219.25 434.418 215.593 430.874 Z"/><path fill="#DC4195" opacity="1.000000" stroke="none" d="M 301.655 370.066 C 301.759 370.463 301.864 370.86 301.791 371.81 C 299.469 374.372 297.686 383.075 299.021 385.142 C 312.404 405.864 298.716 395.808 298.271 401.911 C 297.791 408.5 295.078 410.882 293.713 417.253 C 291.627 426.995 292.318 434.314 293.572 443.904 C 293.219 444.302 291.552 446.015 291.043 446.631 C 288.384 448.021 285.88 449.193 283.141 450.607 C 279.202 451.646 268.528 453.514 264.517 453.94 C 265.395 451.094 273.901 447.644 274.631 445.04 C 275.321 442.582 273.201 439.75 273.553 437.177 C 274.704 428.786 276.383 420.578 276.818 412.137 C 277.49 399.096 276.346 386.312 281.08 372.821 C 281.508 371.602 278.757 369.892 279.587 369.197 C 284.093 365.422 286.478 359.318 286.258 354.332 C 290.864 358.745 305.728 362.275 300.611 368.062 C 301.218 368.763 301.164 369.596 301.655 370.066 Z"/><path fill="#DE429F" opacity="1.000000" stroke="none" d="M 292.585 445.126 C 291.004 435.628 290.074 426.159 292.16 416.417 C 293.525 410.046 292.773 403.244 293.254 396.655 C 293.699 390.552 293.994 384.348 295.437 378.452 C 296.022 376.062 299.35 370.549 301.733 368.289 C 305.246 374.074 309.994 383.588 311.637 390.04 C 315.273 404.322 315.095 418.696 306.572 432.141 C 306.48 432.482 304.255 435.403 303.785 436.117 C 300.161 439.089 296.537 442.061 292.585 445.126 Z"/><path fill="#5851A7" opacity="1.000000" stroke="none" d=" M304.082672,435.973267 C304.255127,435.402679 304.725067,434.688538 305.498352,433.856689 C305.327881,434.435852 304.854034,435.132782 304.082672,435.973267 z"/><path fill="#CE408D" opacity="1.000000" stroke="none" d="M 264.997 453.753 C 261.271 453.54 256.771 453.148 252.627 452.432 C 252.041 450.951 250.943 450.059 250.542 449.189 C 246.073 439.488 248.309 429.665 250.988 419.542 C 252.242 414.805 252.646 409.784 252.917 404.863 C 253.171 400.26 252.436 395.604 252.675 390.999 C 253.16 381.665 255.303 372.212 254.333 363.066 C 253.429 354.544 251.279 345.867 255.434 337.917 C 255.844 336.17 258.02 335.492 257.94 333.999 C 257.811 331.6 257.373 329.217 257.35 327.005 C 259.763 328.806 261.893 330.429 264.142 332.273 C 264.534 332.917 264.807 333.339 265.065 334.172 C 266.575 337.765 267.644 341.292 269.727 344.053 C 273.264 348.743 276.833 351.955 273.728 356.714 C 272.371 358.793 276.762 368.175 276.602 370.694 C 276.033 379.638 270.924 381.934 270.371 390.879 C 270.086 395.49 268.156 397.682 268.996 401.982 C 271.352 414.03 264.886 427.34 262.789 438.62 C 261.697 444.497 261.285 447.891 264.984 452.248 C 264.991 452.482 265.011 452.95 265.006 453.151 C 265 453.351 264.997 453.753 264.997 453.753 Z"/><path fill="#D74090" opacity="1.000000" stroke="none" d="M 264.56 453.504 C 260.868 449.38 259.85 443.544 260.942 437.667 C 263.039 426.387 267.658 415.46 265.302 403.412 C 264.462 399.112 266.631 394.298 266.916 389.687 C 267.469 380.742 267.522 371.766 268.091 362.822 C 268.251 360.303 268.967 357.516 270.324 355.437 C 273.429 350.678 270.516 351.61 266.979 346.92 C 264.896 344.159 264.306 333.465 263.068 330.073 C 266.112 332.292 275.318 335.796 278.143 338.373 C 278.348 338.705 285.813 339.422 286.238 339.764 C 290.251 344.219 282.594 351.013 286.404 355.18 C 286.895 360.39 286.655 365.303 282.149 369.078 C 281.319 369.773 283.055 371.803 282.982 373.093 C 282.242 386.198 279.959 399.059 278.903 412.137 C 278.223 420.562 276.551 428.905 275.4 437.296 C 275.048 439.869 278.3 443.433 277.61 445.891 C 276.88 448.495 272.365 450.022 271.079 452.839 C 270.977 453.18 270.741 453.308 270.221 453.176 C 269.435 453 269.17 452.955 268.625 452.721 C 267.223 452.359 265.683 453.676 264.56 453.504 Z"/><path fill="#C73C8A" opacity="1.000000" stroke="none" d="M 256.989 338.997 C 253.066 346.707 261.089 354.97 261.993 363.492 C 262.963 372.638 256.556 383.095 256.071 392.429 C 255.832 397.034 254.482 400.677 254.228 405.28 C 253.957 410.201 258.557 415.222 257.303 419.959 C 254.624 430.082 247.979 439.488 252.448 449.189 C 252.849 450.059 252.815 451.13 252.991 452.494 C 250.715 452.462 248.43 452.044 245.763 451.561 C 244.703 451.177 237.855 447.879 236.983 446.928 C 236.397 443.694 242.089 444.08 241.797 441.466 C 240.858 433.072 239.032 424.833 238.474 416.411 C 237.908 407.871 237.455 398.854 237.369 390.289 C 237.253 378.785 236.355 365.345 236.355 353.597 C 244.15 353.699 246.93 350.329 249.521 345.572 C 251.001 342.857 254.914 341.388 256.989 338.997 Z"/><path fill="#BF3A8A" opacity="1.000000" stroke="none" d="M 257.695 339.376 C 255.388 342.008 252.351 343.514 250.871 346.229 C 248.28 350.986 246.193 355.925 238.398 355.823 C 238.398 367.571 238.311 379.077 238.427 390.581 C 238.513 399.146 240.388 407.844 240.954 416.384 C 241.512 424.806 244.979 433.072 245.918 441.466 C 246.21 444.08 242.567 446.673 242.944 449.719 C 240.688 449.32 238.447 448.478 235.87 447.525 C 233.726 446.116 231.918 444.818 229.92 443.225 C 235.164 442.421 235.289 441.772 233.543 436.862 C 231.722 431.739 230.155 426.416 229.388 421.05 C 227.649 408.888 226.225 396.667 225.162 384.427 C 224.592 377.856 224.681 371.171 225.158 364.587 C 225.426 360.899 226.81 357.199 228.195 353.704 C 230.507 347.871 232.776 341.937 235.918 336.543 C 238.256 332.529 242.112 329.427 244.939 325.655 C 245.913 324.356 246.75 321.504 246.059 320.653 C 242.654 316.462 238.867 312.531 234.812 308.968 C 234.157 308.393 231.22 309.805 229.767 310.878 C 226.47 313.313 222.347 316.255 218.961 318.601 C 223.683 313.367 229.747 307.707 234.957 303.064 C 239.309 307.076 243.42 311.385 247.617 315.212 C 247.704 315.314 247.911 315.482 247.932 315.808 C 250.991 319.699 258.882 326.073 261.919 329.638 C 262.226 332.027 257.811 331.6 257.94 333.999 C 258.02 335.492 258.106 337.629 257.695 339.376 Z"/><path fill="#574C94" opacity="1.000000" stroke="none" d="M 257.35 327.005 C 254.029 323.263 249.905 318.7 247.194 314.787 C 250.247 316.631 254.339 319.557 256.728 322.07 C 261.885 327.492 263.065 327.614 267.559 322.017 C 268.262 321.142 268.923 320.222 269.711 319.43 C 274.665 314.455 279.632 309.491 284.632 304.563 C 287.148 302.084 286.85 299.78 284.488 297.401 C 278.882 291.751 273.467 285.896 267.62 280.507 C 266.206 279.204 263.862 276.962 261.14 279.768 C 255.211 285.88 248.969 291.688 243.007 297.769 C 239.697 301.144 239.445 304.009 242.331 307.627 C 243.075 308.561 257.17 322.611 257.968 323.773 C 258.979 325.244 246.688 313.849 247.531 315.111 C 243.42 311.385 239.309 307.66 235.02 303.429 C 234.969 302.643 235.076 302.356 235.447 301.897 C 239.6 297.539 243.468 293.345 247.61 288.976 C 251.894 284.862 255.905 280.923 260.149 276.743 C 261.861 275.553 263.338 274.605 264.816 273.657 C 285.436 294.231 306.056 314.805 326.862 335.65 C 320.759 338.409 321.32 345.304 319.194 351.17 C 317.821 354.957 312.768 357.025 310.786 360.56 C 309.361 363.1 307.7 365.539 305.881 367.813 C 305.079 368.816 300.674 369.125 300.058 368.048 C 298.483 365.319 297.227 363.025 295.545 361.106 C 291.535 356.528 286.212 352.698 283.533 347.481 C 281.241 343.018 279.034 341.481 274.567 342.104 C 274.345 342.05 274.167 341.93 273.966 341.2 C 271.323 336.561 268.746 332.47 265.465 327.26 C 264.72 329.736 264.372 330.894 264.024 332.052 C 261.893 330.429 259.763 328.806 257.35 327.005 Z"/><path fill="#47D9EA" opacity="1.000000" stroke="none" d="M 265.009 273.59 C 263.419 274.847 260.571 276.923 258.529 277.952 C 256.186 271.838 254.567 264.193 252.787 257.999 C 253.564 257.969 255.468 258.02 256.633 257.975 C 259.062 257.97 261.103 257.981 263.583 257.988 C 267.036 259.937 270.049 261.891 273.386 263.862 C 270.82 266.933 268.011 270.228 265.009 273.59 Z"/><path fill="#59A7D0" opacity="1.000000" stroke="none" d="M 175.395 244.138 C 178.713 246.871 184.697 252.361 188.078 255.799 C 186.085 262.189 182.871 268.054 180.894 274.158 C 180.518 275.317 180.61 277.131 180.826 278.365 C 181.828 284.094 180.919 287.366 181.997 293.54 C 180.083 291.085 177.849 288.328 176.336 285.22 C 174.293 281.022 171.894 278.185 166.378 279.975 C 163.664 275.596 159.561 270.355 161.557 265.784 C 164.736 258.507 172.255 251.828 175.395 244.138 Z"/><path fill="#65B3DA" opacity="1.000000" stroke="none" d="M 216.677 320.459 C 215.363 322.2 212.735 324.707 211.266 326.734 C 208.303 329.447 205.494 331.873 202.426 334.396 C 197.157 333.182 196.187 329.236 196.024 324.878 C 195.639 314.618 191.867 304.75 191.272 294.503 C 190.97 289.312 191.081 282.653 189.322 277.861 C 187.242 272.194 193.401 268.475 196.075 264.553 C 201.156 268.585 206.62 274.43 211.712 279.162 C 212.013 280.094 212.025 280.523 211.735 281.113 C 210.244 283.525 208.181 285.722 208.038 288.038 C 207.678 293.88 208.718 299.821 208.208 305.636 C 207.55 313.127 210.705 317.33 216.677 320.459 Z"/><path fill="#3ACCE6" opacity="1.000000" stroke="none" d="M 458.928 283.877 C 454.29 288.782 444.219 302.025 443.825 300.706 C 443.709 296.791 441.602 292.193 437.849 290.434 C 435.222 289.202 430.386 293.317 427.84 291.871 C 425.767 290.694 426.919 282.555 424.612 282.11 C 421.086 281.43 417.445 281.353 413.428 281.012 C 409.928 276.239 407.739 271.348 411.264 265.261 C 412.521 264.047 413.258 263.093 413.591 262.153 C 415.995 255.359 416.459 247.793 419.1 240.929 C 421.137 239.716 423.604 237.107 425.229 235.852 C 429.67 232.423 435.582 231.461 440.285 228.182 C 443.204 232.433 445.837 236.502 448.473 240.577 C 453.631 237.049 458.386 233.367 459.988 227.017 C 459.804 231.424 459.59 235.829 459.442 240.237 C 458.976 254.038 458.527 267.84 458.113 281.643 C 458.095 282.261 458.488 282.892 458.928 283.877 Z"/><path fill="#39D5E9" opacity="1.000000" stroke="none" d="M 460.066 226.645 C 458.386 233.367 452.588 241.396 447.43 244.924 C 444.794 240.849 436.075 232.955 433.157 228.27 C 434.204 217.943 435.537 208.232 436.87 198.521 C 441.016 192.973 452.986 181.686 457.416 175.96 C 462.605 175.959 469.14 181.447 471.046 185.138 C 472.143 187.262 475.511 192.01 471.97 193.599 C 470.533 200.075 466.691 207.629 464.772 213.861 C 463.475 218.074 461.704 222.141 460.066 226.645 Z"/><path fill="#2DC6E6" opacity="1.000000" stroke="none" d=" M420.997559,241.997177 C418.719147,248.835632 416.498932,255.694702 414.094971,262.488739 C413.762329,263.428833 412.521057,264.047455 411.351288,264.903778 C406.481567,258.966217 401.868958,253.005020 397.511688,246.862701 C396.546051,245.501511 396.481903,243.500809 396.000732,241.396057 C398.207825,238.192108 400.519226,235.459259 402.582520,232.550400 C403.606201,231.107208 404.173828,229.340546 404.973877,227.355835 C406.747406,226.677917 408.494781,226.364395 410.899658,226.218170 C412.315887,227.463852 413.151581,228.496841 413.819733,229.628754 C416.242737,233.733612 418.609558,237.871658 420.997559,241.997177 z"/><path fill="#2FCEE9" opacity="1.000000" stroke="none" d="M 421.36 241.972 C 418.61 237.872 414.852 237.211 412.429 233.106 C 411.761 231.974 405.709 228.507 404.673 227.235 C 404.399 226.284 408.574 223.093 408.583 221.956 C 416.285 214.936 423.064 209.525 430.74 202.862 C 431.22 202.445 433.037 196.974 433.18 196.378 C 434.324 191.598 439.558 196.798 443.613 197.971 C 442.666 207.71 444.984 220.203 443.651 230.348 C 439.233 234.243 431.181 234.941 426.74 238.37 C 425.115 239.625 423.397 240.759 421.36 241.972 Z"/><path fill="#109CA4" opacity="1.000000" stroke="none" d=" M38.000530,165.000610 C38.228954,164.616852 38.445999,164.224991 38.698925,163.857880 C38.729420,163.813614 38.954086,163.903107 39.088760,163.930603 C38.867458,164.247345 38.646152,164.564087 38.211815,164.939865 C37.998779,164.998886 38.000000,165.000000 38.000530,165.000610 z"/><path fill="#59A7D0" opacity="1.000000" stroke="none" d="M 212.038 280.952 C 212.025 280.523 211.09 279.039 211.067 278.288 C 217.289 275.827 214.193 271.395 215.095 266.783 C 215.756 263.401 218.914 259.597 218.787 256.16 C 218.566 250.205 222.551 244.77 226.403 240.612 C 230.07 243.218 235.796 249.536 239.501 253.04 C 237.751 264.053 234.704 273.527 232.329 283.952 C 228.753 283.645 223.85 282.208 220.65 282.121 C 218.773 282.07 217.141 285.072 214.997 285.24 C 213.927 284.498 212.85 281.538 212.038 280.952 Z"/><path fill="#5DAFD7" opacity="1.000000" stroke="none" d="M 230.998 283.001 C 232.99 272.604 236.316 262.785 238.316 251.987 C 241.738 253.256 243.819 254.347 247.603 256.05 C 248.23 256.284 248.464 256.509 248.829 257.379 C 248.745 260.306 248.816 262.699 248.208 264.905 C 246.625 270.649 244.744 276.311 242.588 282.015 C 238.462 282.35 234.73 282.675 230.998 283.001 Z"/><path fill="#65B3DA" opacity="1.000000" stroke="none" d="M 242.206 282.308 C 243.969 276.614 242.158 270.649 243.741 264.905 C 244.349 262.699 247.363 258.553 247.591 255.823 C 248.99 255.705 251.783 257.761 253.555 258.072 C 255.696 264.274 257.879 270.548 259.988 276.904 C 256.308 281.004 251.658 285.536 247.113 289.402 C 245.301 287.113 243.484 284.525 242.206 282.308 Z"/><path fill="#6DBADE" opacity="1.000000" stroke="none" d="M 211.955 280.378 C 213.07 280.803 213.663 282.125 214.91 283.146 C 221.164 286.139 221.958 290.573 225.419 293.864 C 228.49 296.785 232.694 298.418 235.953 301.137 C 235.867 301.433 235.233 303.039 235.043 303.539 C 230.011 308.687 224.778 313.221 219.693 318.479 C 218.383 319.609 217.188 320.412 215.678 321.22 C 209.391 318.096 203.084 313.533 203.741 306.042 C 204.251 300.227 204.306 292.704 207.744 286.642 C 208.889 284.624 210.464 282.79 211.955 280.378 Z"/><path fill="#5851A7" opacity="1.000000" stroke="none" d="M 273.217 340.122 C 277.481 339.212 281.241 343.018 283.533 347.481 C 286.212 352.698 292.849 355.931 296.859 360.509 C 298.541 362.428 302.831 370.025 304.289 372.523 C 299.964 368.711 291.281 359.817 286.675 355.404 C 282.594 351.013 277.23 344.577 273.217 340.122 Z"/><path fill="#5851A7" opacity="1.000000" stroke="none" d="M 261.155 329.884 C 261.385 328.505 265.556 328.661 266.301 326.185 C 269.582 331.395 271.323 336.561 273.897 341.052 C 290.212 356.734 270.651 338.146 267.623 335.516 C 266.36 335.011 261.547 330.528 261.155 329.884 Z"/><path fill="#52A9D3" opacity="1.000000" stroke="none" d="M 235.447 301.897 C 231.903 299.341 228.511 298.92 225.419 296.022 C 221.921 292.744 218.691 287.022 215.168 283.302 C 216.877 282.699 218.773 278.415 220.65 278.466 C 223.85 278.553 227.039 282.722 230.615 283.029 C 234.73 282.675 236.026 276.665 240.152 276.33 C 241.823 278.537 246.111 286.439 247.649 288.903 C 244.042 293.345 239.6 297.539 235.447 301.897 Z"/></svg>